<svg xmlns="http://www.w3.org/2000/svg" viewBox="0 0 222.892 205.797">
  <defs>
    <style>
      .cls-1 {
        fill: #f4efff;
      }

      .cls-2 {
        fill: #6a5594;
      }

      .cls-3 {
        fill: #b19fdb;
      }

      .cls-4 {
        fill: #4f3b7a;
      }

      .cls-10, .cls-5, .cls-6 {
        fill: none;
      }

      .cls-5 {
        stroke: #6a5594;
      }

      .cls-6 {
        stroke: #8d63f0;
      }

      .cls-7 {
        fill: #e4d8ff;
      }

      .cls-8 {
        fill: #fff;
        stroke: #b19fdb;
      }

      .cls-9 {
        stroke: none;
      }
    </style>
  </defs>
  <g id="Group_238" data-name="Group 238" transform="translate(-13727.108 -14709)">
    <g id="Group_229" data-name="Group 229" transform="translate(12655 12344.577)">
      <ellipse id="Ellipse_64" data-name="Ellipse 64" class="cls-1" cx="102.867" cy="102.867" rx="102.867" ry="102.867" transform="translate(1072.108 2364.423)"/>
      <g id="Group_187" data-name="Group 187" transform="translate(1157.938 2459.771)">
        <path id="Path_200" data-name="Path 200" class="cls-2" d="M-2065.666,12525.6l48.963,13.421,49.765-13.421-49.765-13.323Z" transform="translate(2085.339 -12489.816)"/>
        <path id="Path_202" data-name="Path 202" class="cls-3" d="M-2139,12442.467l19.453,22.11,49.438-13.553-19.587-22.187Z" transform="translate(2139 -12428.76)"/>
        <path id="Path_205" data-name="Path 205" class="cls-2" d="M-2065.666,12622.214l48.8,14.354,49.479-14.354v-60.322l-49.479,13.464-48.8-13.464Z" transform="translate(2085.339 -12526.12)"/>
        <path id="Path_206" data-name="Path 206" class="cls-4" d="M-1881.656,12637.075v-61.418l49.294-13.072v60.02Z" transform="translate(1950.693 -12526.628)"/>
        <path id="Intersection_2" data-name="Intersection 2" class="cls-4" d="M0,0,49.294,13.2v.037L0,26.529Z" transform="translate(68.768 22.569)"/>
        <path id="Path_201" data-name="Path 201" class="cls-3" d="M-1883,12451.012l19.479-22.461,48.907,13.871-18.719,21.8Z" transform="translate(1951.676 -12428.551)"/>
        <path id="Path_204" data-name="Path 204" class="cls-2" d="M-1833.91,12561.508l13.48,27.5-49.306,14.056-14.13-28.182Z" transform="translate(1952.31 -12525.84)"/>
        <path id="Path_203" data-name="Path 203" class="cls-3" d="M-2054.669,12575.185l-13.505,27.631-49.432-13.573,13.656-27.544Z" transform="translate(2123.345 -12525.979)"/>
      </g>
      <path id="Path_209" data-name="Path 209" class="cls-5" d="M1278.1,12190.945s6.009-15.046-13.569-15.447-24.27-8.769-20.465-15.957" transform="translate(-88.299 -9714.213)"/>
      <path id="Path_210" data-name="Path 210" class="cls-6" d="M19.892,17.723s3.391-8.491-7.658-8.717S-1.462,4.057.685,0" transform="translate(1262.2 2445.12) rotate(49)"/>
      <ellipse id="Ellipse_66" data-name="Ellipse 66" class="cls-7" cx="3.608" cy="3.608" rx="3.608" ry="3.608" transform="translate(1258.663 2435.382)"/>
      <g id="Ellipse_67" data-name="Ellipse 67" class="cls-8" transform="translate(1170.875 2450.414)">
        <ellipse class="cls-9" cx="1.804" cy="1.804" rx="1.804" ry="1.804"/>
        <ellipse class="cls-10" cx="1.804" cy="1.804" rx="1.304" ry="1.304"/>
      </g>
      <ellipse id="Ellipse_68" data-name="Ellipse 68" class="cls-3" cx="1.804" cy="1.804" rx="1.804" ry="1.804" transform="translate(1164.862 2447.407)"/>
    </g>
  </g>
</svg>
