<svg xmlns="http://www.w3.org/2000/svg" width="167.29" height="148.465" viewBox="0 0 167.29 148.465"><defs><style>.a,.b{fill:#6a5594;stroke:#fff;stroke-miterlimit:10;stroke-width:0.733px;}.b{opacity:0.26;}.c{fill:#a384c3;}.d{fill:#fff;}.e{fill:#00b7b1;}</style></defs><g transform="translate(-225.281 -312.663)"><rect class="a" width="124.099" height="124.131" rx="62.049" transform="translate(237.708 313.029)"/><path class="b" d="M243.606,404.37H373.951a6.538,6.538,0,0,1,6.533,6.542v27.763a6.538,6.538,0,0,1-3.8,5.944,6.465,6.465,0,0,1-2.737.6H304.817a3.644,3.644,0,0,0-3.082,5.584l1.208,1.93a5.484,5.484,0,0,0,4.561,2.57l48.182.724,20.052.3a4.828,4.828,0,0,1-.075,9.655H304.747a8.272,8.272,0,0,1-7.13-4.075l-25.033-42.427a11.232,11.232,0,0,0-9.676-5.533H242.92V406.3" transform="translate(-2.776 -48.825)"/><path class="c" d="M240.721,408.51h128.6a6.539,6.539,0,0,1,6.533,6.547V442.82a6.537,6.537,0,0,1-6.533,6.542H300.188a3.747,3.747,0,0,0-.835.093,3.651,3.651,0,0,0-2.248,5.491l1.208,1.93a5.477,5.477,0,0,0,4.561,2.575l49.385.738,18.849.285a4.822,4.822,0,0,1,4.747,4.827,4.837,4.837,0,0,1-4.822,4.832H300.118a8.276,8.276,0,0,1-7.13-4.08l-25.033-42.427a11.232,11.232,0,0,0-9.676-5.533H238.8Z" transform="translate(-0.582 -51.038)"/><circle class="d" cx="7.532" cy="7.532" r="7.532" transform="translate(304.455 422.097)"/><circle class="b" cx="7.532" cy="7.532" r="7.532" transform="translate(354.215 423.966)"/><circle class="d" cx="7.532" cy="7.532" r="7.532" transform="translate(351.879 422.097)"/><rect class="e" width="5.135" height="36.631" transform="translate(332.906 328.777)"/><rect class="e" width="5.135" height="36.631" transform="translate(353.771 344.459) rotate(90)"/></g></svg>