<svg xmlns="http://www.w3.org/2000/svg" width="156.133" height="122" viewBox="0 0 156.133 122"><defs><style>.a{fill:#a6a5a7;opacity:0.21;}.b{fill:#6a5594;}.c{fill:#fff;}.d{fill:#00b7b1;}</style></defs><g transform="translate(-1398.712 -313.093)"><path class="a" d="M1636.618,384.291h.108l-.108,4.75v18.036L1673,380.007l-35.534-28.358-.508,22.362-.341,0Z" transform="translate(-129.29 -20.857)"/><path class="b" d="M1520.246,374.09v.007a60.88,60.88,0,0,1-60.764,61h0a60.884,60.884,0,0,1-60.767-61h0a60.884,60.884,0,0,1,60.767-61h0A60.88,60.88,0,0,1,1520.246,374.09Z" transform="translate(0)"/><path class="c" d="M1534.48,405.1l36.8-27.382-35.534-28.358-.508,22.362-81.273-1.1-.234,10.282,81.273,1.1Z" transform="translate(-30.357 -19.618)"/><path class="d" d="M1548.4,456.126v10.284l-59.224-.75-.544,22.36-37.874-28.356,39.222-27.381-.558,23.093Z" transform="translate(-28.156 -64.604)"/></g></svg>