<svg xmlns="http://www.w3.org/2000/svg" width="65.487" height="50.4" viewBox="0 0 65.487 50.4"><defs><style>.a,.b{fill:#6a5594;}.b{opacity:0.23;}.c{fill:#fff;stroke:#00b7b1;stroke-miterlimit:10;stroke-width:1.321px;}.d{fill:#00b7b1;}</style></defs><g transform="translate(-1184.672 19.632)"><rect class="a" width="48" height="48" rx="2.325" transform="translate(1184.672 -19.444)"/><circle class="b" cx="16.338" cy="16.338" r="16.338" transform="translate(1208.621 -10.769)"/><path class="c" d="M1239.242,3.5a15.451,15.451,0,1,1-15.45-15.45q.681,0,1.348.059a15.456,15.456,0,0,1,13.286,10.426h0A15.444,15.444,0,0,1,1239.242,3.5Z"/><path class="d" d="M1238.426-1.465h0a4.345,4.345,0,0,0-5.49,1.86c-.866,1.517-1.946,2.981-2.938,3.1a11.14,11.14,0,0,0-2.618.775,2.039,2.039,0,0,1-2.786-1.622l-.01-.077c-.4-2.906-.132-4.886-1.453-7.66s1.471-6.664,1.471-6.664l.538-.143A15.456,15.456,0,0,1,1238.426-1.465Z"/><path class="d" d="M1218.743,13.344a1.79,1.79,0,0,1-2.276-1.469,1.417,1.417,0,0,1,.986-1.508c.7-.33,1.274-.634,1.729-.9a1.449,1.449,0,0,1,2.132.908c.233.975.234,2.035-.692,2.366C1219.9,13,1219.257,13.2,1218.743,13.344Z"/></g></svg>