<svg xmlns="http://www.w3.org/2000/svg" width="64.035" height="50.4" viewBox="0 0 64.035 50.4"><defs><style>.a,.b{fill:#6a5594;}.b{opacity:0.23;}.c{fill:#fff;}.d{fill:none;stroke:#00b7b1;stroke-miterlimit:10;stroke-width:1.188px;}.e{fill:#00b7b1;}</style></defs><g transform="translate(-1099.898 19.632)"><rect class="a" width="48" height="48" rx="2.325" transform="translate(1099.898 -19.444)"/><circle class="b" cx="16.338" cy="16.338" r="16.338" transform="translate(1122.395 -10.769)"/><circle class="c" cx="15.309" cy="15.309" r="15.309" transform="translate(1121.555 -11.748)"/><path class="d" d="M1130.151-5.1l6.621,6.621,6.548-6.548"/><line class="d" x2="0.091" y2="16.278" transform="translate(1136.864 -14.756)"/><path class="d" d="M1148.447,2.594,1139.3,4.615l2,9.042"/><line class="d" x1="13.773" y1="8.678" transform="translate(1139.205 4.769)"/><path class="d" d="M1125.1,2.594l9.143,2.021-2,9.042"/><line class="d" y1="8.678" x2="13.773" transform="translate(1120.572 4.769)"/><path class="e" d="M1123.616,9.37l-.316.217a1.609,1.609,0,0,1-2.441-.842,16.871,16.871,0,0,1,11.95-21.494,1.61,1.61,0,0,1,2.006,1.557h0a1.61,1.61,0,0,1-1.219,1.559,13.336,13.336,0,0,0-9.366,17.164A1.607,1.607,0,0,1,1123.616,9.37Z"/><path class="e" d="M1148.574,13.075a1.61,1.61,0,0,1,.218,2.472,16.85,16.85,0,0,1-23.811-.046,1.609,1.609,0,0,1,.222-2.468l.425-.292a1.611,1.611,0,0,1,2.025.172,13.322,13.322,0,0,0,18.416.005,1.61,1.61,0,0,1,2.024-.172Z"/><path class="e" d="M1153.761,3.6a16.816,16.816,0,0,1-.827,5.227,1.6,1.6,0,0,1-2.433.817l-.393-.269a1.608,1.608,0,0,1-.613-1.841,13.334,13.334,0,0,0-9.523-17.207,1.608,1.608,0,0,1-1.239-1.563v-.021a1.61,1.61,0,0,1,1.982-1.563A16.857,16.857,0,0,1,1153.761,3.6Z"/></g></svg>