<svg xmlns="http://www.w3.org/2000/svg" width="64" height="55" viewBox="0 0 64 55"><defs><style>.a{fill:#6a5594;}.b{fill:#00b7b1;}.c{fill:#fff;}</style></defs><g transform="translate(-1188.676 -83.897)"><path class="a" d="M4.244,0H49.762a4.244,4.244,0,0,1,4.244,4.244v46.51A4.245,4.245,0,0,1,49.76,55H4.245A4.245,4.245,0,0,1,0,50.755V4.244A4.244,4.244,0,0,1,4.244,0Z" transform="translate(1188.676 83.897)"/><path class="b" d="M1235.339,115.292,1251.861,103l-15.954-12.732-.228,10.04-36.49-.492-.1,4.616,36.49.492Z" transform="translate(0.814 1.004)"/><path class="c" d="M1241.221,115.213v4.617l-26.25-.337-.241,10.039L1197.942,116.8l17.385-12.293-.247,10.368Z" transform="translate(1.461 3.416)"/></g></svg>