<svg xmlns="http://www.w3.org/2000/svg" xmlns:xlink="http://www.w3.org/1999/xlink" width="48" height="48" viewBox="0 0 48 48"><defs><style>.a{fill:#fff;}.b{clip-path:url(#a);}.c{fill:#a38ac3;}.d{fill:#00b7b1;}</style><clipPath id="a"><rect class="a" width="48" height="48" transform="translate(473 -1379)"/></clipPath></defs><g class="b" transform="translate(-473 1379)"><g transform="translate(67)"><path class="c" d="M6.179,16.772V13.242H1.324a1.324,1.324,0,0,1,0-2.649H6.179V6.179H3.973a1.324,1.324,0,0,1,0-2.649H6.179V0H30.014V16.772Z" transform="translate(409.696 -1366.476)"/><path class="c" d="M0,0H0A11.476,11.476,0,0,1,11.476,11.476v.883a0,0,0,0,1,0,0H0a0,0,0,0,1,0,0V0A0,0,0,0,1,0,0Z" transform="translate(441.476 -1362.062)"/><circle class="c" cx="2.648" cy="2.648" r="2.648" transform="translate(420.289 -1348.821)"/><circle class="c" cx="2.648" cy="2.648" r="2.648" transform="translate(445.007 -1348.821)"/><rect class="d" width="12.359" height="2.648" rx="1.324" transform="translate(408.813 -1366.476)"/><rect class="d" width="10.593" height="2.648" rx="1.324" transform="translate(407.048 -1359.414)"/><rect class="d" width="10.593" height="2.648" rx="1.324" transform="translate(412.345 -1352.352)"/></g></g></svg>