<svg xmlns="http://www.w3.org/2000/svg" width="74.322" height="75.95" viewBox="0 0 74.322 75.95"><defs><style>.a,.b{fill:#6a5594;}.b{opacity:0.23;}.c{fill:#fff;stroke:#00b7b1;stroke-miterlimit:10;stroke-width:1.321px;}.d{fill:#00b7b1;}</style></defs><g transform="translate(-1098.41 -72.883)"><rect class="a" width="48" height="48" rx="2.325" transform="translate(1098.41 83.556)"/><rect class="b" width="28.127" height="32.485" transform="translate(1122.871 94.615)"/><rect class="c" width="28.127" height="32.485" transform="translate(1120.891 92.37)"/><rect class="d" width="22.449" height="6.603" transform="translate(1124.06 95.804)"/><rect class="d" width="5.942" height="2.113" transform="translate(1124.06 105.84)"/><rect class="d" width="5.942" height="2.113" transform="translate(1140.435 105.84)"/><rect class="d" width="5.942" height="2.113" transform="translate(1131.983 105.84)"/><rect class="d" width="5.942" height="2.113" transform="translate(1124.06 110.197)"/><rect class="d" width="5.942" height="2.113" transform="translate(1140.435 110.197)"/><rect class="d" width="5.942" height="2.113" transform="translate(1131.983 110.197)"/><rect class="d" width="5.942" height="2.113" transform="translate(1124.06 114.555)"/><rect class="d" width="5.942" height="2.113" transform="translate(1140.435 114.555)"/><rect class="d" width="5.942" height="2.113" transform="translate(1131.983 114.555)"/><rect class="d" width="5.942" height="2.113" transform="translate(1124.06 118.913)"/><rect class="d" width="5.942" height="2.113" transform="translate(1140.435 118.913)"/><rect class="d" width="5.942" height="2.113" transform="translate(1131.983 118.913)"/></g></svg>