<svg xmlns="http://www.w3.org/2000/svg" viewBox="0 0 56.036 56"><defs><style>.a{fill:#7e55cb;}.b{fill:none;stroke:#7e55cb;stroke-miterlimit:10;stroke-width:2px;}.c{fill:#b299e0;}.d{fill:#55cea7;}.e{fill:#fff;}</style></defs><g transform="translate(0.036)"><path class="a" d="M54.531,26.44H0V20.269C0,16.254,3.534,13,7.9,13H46.682c4.361,0,7.9,3.254,7.9,7.269V26.44Z" transform="translate(0 -7.506)"/><path class="b" d="M46.854,82.48H9.582C5.451,82.48,2.1,79.4,2.1,75.591V48.5H54.336V75.591C54.336,79.4,50.985,82.48,46.854,82.48Z" transform="translate(-1.136 -28.002)"/><g transform="translate(5.784 23.71)"><rect class="c" width="7.666" height="6.382"/><rect class="c" width="7.666" height="6.382" transform="translate(11.567)"/><rect class="c" width="7.666" height="6.382" transform="translate(23.134)"/><rect class="c" width="7.666" height="6.382" transform="translate(34.748)"/><rect class="c" width="7.666" height="6.382" transform="translate(0 8.115)"/><rect class="c" width="7.666" height="6.382" transform="translate(11.567 8.115)"/><rect class="c" width="7.666" height="6.382" transform="translate(23.134 8.115)"/><rect class="c" width="7.666" height="6.382" transform="translate(34.748 8.115)"/><rect class="c" width="7.666" height="6.382" transform="translate(0 16.272)"/><rect class="c" width="7.666" height="6.382" transform="translate(11.567 16.272)"/><rect class="c" width="7.666" height="6.382" transform="translate(23.134 16.272)"/><rect class="c" width="7.666" height="6.382" transform="translate(34.748 16.272)"/></g><g transform="translate(38.879 42.391)"><path class="d" d="M89.152,109.556,84.7,104.611l1.377-1.057,3.213,3.508,7.344-6.762,1.331,1.183Z" transform="translate(-84.7 -100.3)"/></g><g transform="translate(35.436 37.066)"><path class="d" d="M87.482,106.634c-5.692,0-10.282-4.269-10.282-9.467S81.836,87.7,87.482,87.7s10.282,4.226,10.282,9.467S93.174,106.634,87.482,106.634Zm0-17.666c-4.911,0-8.9,3.677-8.9,8.2s3.993,8.2,8.9,8.2,8.9-3.677,8.9-8.2S92.393,88.968,87.482,88.968Z" transform="translate(-77.2 -87.7)"/></g><path class="e" d="M32.646,10.566H32a2.123,2.123,0,0,1-2.2-2.029V2.029A2.121,2.121,0,0,1,32,0h.643a2.123,2.123,0,0,1,2.2,2.029V8.537A2.123,2.123,0,0,1,32.646,10.566Z" transform="translate(-16.121)"/><path class="a" d="M33.407,10.875h0A1.566,1.566,0,0,1,31.8,9.4V3.479A1.566,1.566,0,0,1,33.407,2h0a1.566,1.566,0,0,1,1.607,1.479V9.4A1.566,1.566,0,0,1,33.407,10.875Z" transform="translate(-17.203 -1.155)"/><path class="e" d="M81.646,11.566H81a2.123,2.123,0,0,1-2.2-2.029V3.029A2.121,2.121,0,0,1,81,1h.643a2.123,2.123,0,0,1,2.2,2.029V9.537A2.123,2.123,0,0,1,81.646,11.566Z" transform="translate(-42.63 -0.577)"/><path class="a" d="M82.407,11.875h0A1.566,1.566,0,0,1,80.8,10.4V4.479A1.566,1.566,0,0,1,82.407,3h0a1.566,1.566,0,0,1,1.607,1.479V10.4A1.566,1.566,0,0,1,82.407,11.875Z" transform="translate(-43.711 -1.732)"/></g></svg>