<svg xmlns="http://www.w3.org/2000/svg" viewBox="0 0 56 56"><defs><style>.a{fill:#7e55cb;}.b{fill:#55cea7;}</style></defs><path class="a" d="M0,3.427V47.182a3.349,3.349,0,0,0,3.232,3.427H52.768A3.349,3.349,0,0,0,56,47.182V12.2a3.349,3.349,0,0,0-3.232-3.427H21.833a3.241,3.241,0,0,1-2.68-1.5L15.527,1.5A3.189,3.189,0,0,0,12.847,0H3.232A3.349,3.349,0,0,0,0,3.427Z"/><g transform="translate(20.453 23.988)"><g transform="translate(5.557 4.43)"><rect class="b" width="3.941" height="27.582"/></g><path class="b" d="M64.156,68.307l-4.729-5.015L54.7,68.307l-2.8-2.925L59.427,57.4l7.527,7.982Z" transform="translate(-51.9 -57.4)"/></g></svg>