<svg xmlns="http://www.w3.org/2000/svg" xmlns:xlink="http://www.w3.org/1999/xlink" width="198" height="201" viewBox="0 0 198 201">
    <defs>
        <path id="a" d="M0 0h192v192H0z"/>
        <path id="c" d="M.634.127h57.733v95.115H.634z"/>
    </defs>
    <g fill="none" fill-rule="evenodd">
        <circle cx="99" cy="102" r="99" fill="#FFF"/>
        <g transform="translate(3 6)">
            <mask id="b" fill="#fff">
                <use xlink:href="#a"/>
            </mask>
            <path fill="#6844B0" d="M192 96c0 7.587-.882 14.957-2.555 22.034a92.789 92.789 0 0 1-4.505 14.136 94.727 94.727 0 0 1-11.536 20.578c-12.79 17.45-31.37 30.426-52.908 36.093A96.115 96.115 0 0 1 96 192c-18.086 0-34.994-5.001-49.44-13.688a182.951 182.951 0 0 1-2.896-1.827c-15.066-9.817-27.205-23.737-34.808-40.18C3.175 124.04 0 110.385 0 96 0 42.983 42.984 0 96 0c53.017 0 96 42.983 96 96" mask="url(#b)"/>
        </g>
        <path fill="#E7AB90" d="M131 55l-5 7v-7zM131 62l-5 7v-7z"/>
        <g transform="translate(70)">
            <mask id="d" fill="#fff">
                <use xlink:href="#c"/>
            </mask>
            <path fill="#96ABC0" d="M50.132 95.242H8.868c-4.548 0-8.234-3.675-8.234-8.212V8.34C.634 3.805 4.32.128 8.868.128h41.264c4.547 0 8.235 3.677 8.235 8.214V87.03c0 4.537-3.688 8.212-8.235 8.212" mask="url(#d)"/>
        </g>
        <path fill="#FFF" d="M73 87.861V8.137C73 5.3 75.286 3 78.107 3h41.786C122.714 3 125 5.299 125 8.137v79.724c0 2.837-2.286 5.139-5.107 5.139H78.107C75.286 93 73 90.698 73 87.861"/>
        <path stroke="#6844B0" stroke-dasharray="1.983,1.983" stroke-linecap="round" stroke-linejoin="round" stroke-width=".5" d="M112 27c0-6.627-5.373-12-12-12s-12 5.373-12 12 5.373 12 12 12 12-5.373 12-12z"/>
        <path fill="#6A5594" d="M103 25.5a3.5 3.5 0 1 0-7-.001 3.5 3.5 0 0 0 7 .002"/>
        <path fill="#6A5594" d="M104 32.567A7.857 7.857 0 0 1 99.493 34c-1.649 0-3.195-.53-4.493-1.433.583-2.072 2.378-3.567 4.493-3.567 2.13 0 3.924 1.495 4.507 3.567"/>
        <path fill="#00B7B1" d="M106 77.5a7.5 7.5 0 1 0-15 .001 7.5 7.5 0 0 0 15-.002"/>
        <path stroke="#FFF" stroke-linecap="round" stroke-linejoin="round" d="M99 75v6M102 77.5h-6"/>
        <path fill="#F3CBBA" d="M128.95 39H118.6c-.884 0-1.6-.729-1.6-1.63v-1.789c0-2.531 2.014-4.581 4.499-4.581h7.45c1.685 0 3.051 1.39 3.051 3.106v1.79c0 1.714-1.366 3.104-3.05 3.104M128.647 48h-14.888c-.97 0-1.759-.73-1.759-1.63v-1.79c0-2.53 2.215-4.58 4.946-4.58h11.7c1.852 0 3.354 1.39 3.354 3.105v1.79c0 1.714-1.502 3.105-3.353 3.105M128.95 59H118.6c-.884 0-1.6-.73-1.6-1.63v-1.79c0-2.53 2.014-4.58 4.499-4.58h7.45c1.685 0 3.051 1.39 3.051 3.105v1.79c0 1.714-1.366 3.105-3.05 3.105M128.954 69h-7.356c-.882 0-1.598-.73-1.598-1.63v-1.79c0-2.53 2.011-4.58 4.492-4.58h4.462c1.682 0 3.046 1.39 3.046 3.105v1.79c0 1.714-1.364 3.105-3.046 3.105"/>
        <path fill="#ECAD8F" d="M131 112.342l8.949 15.044c.904 1.517 2.772 2.053 4.288 1.226 1.667-.904 2.262-3.092 1.305-4.783L137.714 110 131 112.342z"/>
        <path fill="#ECAD8F" d="M138 112.342l8.949 15.044c.904 1.517 2.772 2.053 4.288 1.226 1.667-.904 2.262-3.092 1.305-4.783L144.714 110 138 112.342z"/>
        <path fill="#F3CBBA" d="M192 124.73a90.74 90.74 0 0 1-4.51 13.956A93.159 93.159 0 0 1 175.941 159l-22.166-35.462c-2.666-4.25-7.068-7.138-12.06-7.948-5.285-.84-13.36-1.804-24.847-2.37-3.44-.17-5.797-3.532-4.68-6.756 0 0 6.215-.336 12.756-1.085 6.541-.749 13.424-1.943 14.757-3.655 0 0-25.56-5.944-35.9-13.938-1.456-1.131-2.076-3.013-1.689-4.786 0 0 16.523 6.574 32.582 8.025 15.64 1.423 31.14 4.74 42.487 15.455L192 124.73z"/>
        <path fill="#F3CBBA" d="M131 104l22-2.454L131.858 99l8.548 2.169z"/>
        <path fill="#FFF" d="M113 105.58s-.001 4.594 2.527 4.415c2.529-.177 7.473.005 7.473.005l-2.644-5-7.356.58zM103.11 83l-.11.952L108.519 86l.481-.73zM122 37.713l-3.991.287c-.194-3.248 2.949-5 2.949-5L122 37.713zM117 44s-2.364.914-1.952 3H117v-3zM119.92 54s-2.207.351-1.787 4h1.788v-4zM121.654 63s-1.398.834-1.304 5h1.304v-5z"/>
        <path fill="#472788" d="M81 139.644L49.428 185a193.198 193.198 0 0 1-2.874-1.826A96.092 96.092 0 0 1 12 142.974L28.985 113 81 139.644z"/>
        <path fill="#E79005" d="M81.962 138.723c-.485.924-5.427-.523-12.59-3.49-4.426-1.83-9.696-4.228-15.28-7.026-5.223-2.599-10.009-5.197-13.966-7.503-7.131-4.182-11.588-7.473-11.088-8.426.516-1.015 6.428.815 14.732 4.382a254.605 254.605 0 0 1 13.138 6.12c5.52 2.768 10.572 5.504 14.654 7.917 6.724 3.983 10.885 7.088 10.4 8.026"/>
        <path fill="#F3CBBA" d="M98 94.579s-4.466 10.935-13.6 17.98c-4.73 3.639-8.67 8.207-11.213 13.598l-2.016 4.273L69 135c-4.389-1.844-9.615-4.259-15.151-7.079-5.18-2.617-9.925-5.234-13.849-7.557l3.613-4.072 6.095-6.862a11.518 11.518 0 0 0 2.885-8.285L51.15 75.563a11.607 11.607 0 0 1 1.536-6.413l6.466-11.12a11.389 11.389 0 0 1 5.289-4.738L85.454 44s2.993 5.59 0 8.936c-2.978 3.36-15.136 10.422-15.136 10.422s7.863 13.938 6.048 31.22H98z"/>
        <path fill="#FFF" d="M77 48l9-2.078L85.28 44z"/>
    </g>
</svg>
