<svg xmlns="http://www.w3.org/2000/svg" xmlns:xlink="http://www.w3.org/1999/xlink" width="198" height="199" viewBox="0 0 198 199">
    <defs>
        <path id="a" d="M0 0h190v190.373H0z"/>
        <path id="c" d="M12.497.63C4.297 2.287-1.008 10.278.648 18.48c1.657 8.198 9.648 13.503 17.85 11.846 8.199-1.658 13.504-9.647 11.847-17.848C28.89 5.29 22.572.328 15.511.328c-.994 0-2.001.098-3.014.301z"/>
        <path id="e" d="M12.497.63C4.297 2.287-1.008 10.278.648 18.48c1.657 8.198 9.648 13.503 17.85 11.846 8.199-1.658 13.504-9.647 11.847-17.848C28.89 5.29 22.572.328 15.511.328c-.994 0-2.001.098-3.014.301"/>
        <path id="g" d="M12.497.63C4.297 2.287-1.008 10.278.648 18.48c1.657 8.198 9.648 13.503 17.85 11.846 8.199-1.658 13.504-9.647 11.847-17.848C28.89 5.29 22.572.328 15.511.328c-.994 0-2.001.098-3.014.301"/>
        <path id="i" d="M12.497.63C4.297 2.287-1.008 10.278.648 18.48c1.657 8.198 9.648 13.503 17.85 11.846 8.199-1.658 13.504-9.647 11.847-17.848C28.89 5.29 22.572.328 15.511.328c-.994 0-2.001.098-3.014.301"/>
        <path id="k" d="M12.497.63C4.297 2.287-1.008 10.278.648 18.48c1.657 8.198 9.648 13.503 17.85 11.846 8.199-1.658 13.504-9.647 11.847-17.848C28.89 5.29 22.572.328 15.511.328c-.994 0-2.001.098-3.014.301"/>
        <path id="m" d="M12.497.63C4.297 2.287-1.008 10.278.648 18.48c1.657 8.198 9.648 13.503 17.85 11.846 8.199-1.658 13.504-9.647 11.847-17.848C28.89 5.29 22.572.328 15.511.328c-.994 0-2.001.098-3.014.301z"/>
        <path id="o" d="M12.497.63C4.297 2.287-1.008 10.278.648 18.48c1.657 8.198 9.648 13.503 17.85 11.846 8.199-1.658 13.504-9.647 11.847-17.848C28.89 5.29 22.572.328 15.511.328c-.994 0-2.001.098-3.014.301z"/>
        <path id="q" d="M12.497.63C4.297 2.287-1.008 10.278.648 18.48c1.657 8.198 9.648 13.503 17.85 11.846 8.199-1.658 13.504-9.647 11.847-17.848C28.89 5.29 22.572.328 15.511.328c-.994 0-2.001.098-3.014.301z"/>
        <path id="s" d="M12.497.63C4.297 2.287-1.008 10.278.648 18.48c1.657 8.198 9.648 13.503 17.85 11.846 8.199-1.658 13.504-9.647 11.847-17.848C28.89 5.29 22.572.328 15.511.328c-.994 0-2.001.098-3.014.301"/>
        <path id="u" d="M12.497.63C4.297 2.287-1.008 10.278.648 18.48c1.657 8.198 9.648 13.503 17.85 11.846 8.199-1.658 13.504-9.647 11.847-17.848C28.89 5.29 22.572.328 15.511.328c-.994 0-2.001.098-3.014.301"/>
        <path id="w" d="M12.497.63C4.297 2.287-1.008 10.278.648 18.48c1.657 8.198 9.648 13.503 17.85 11.846 8.199-1.658 13.504-9.647 11.847-17.848C28.89 5.29 22.572.328 15.511.328c-.994 0-2.001.098-3.014.301z"/>
        <path id="y" d="M12.497.63C4.297 2.287-1.008 10.278.648 18.48c1.657 8.198 9.648 13.503 17.85 11.846 8.199-1.658 13.504-9.647 11.847-17.848C28.89 5.29 22.572.328 15.511.328c-.994 0-2.001.098-3.014.301"/>
        <path id="A" d="M12.497.63C4.297 2.287-1.008 10.278.648 18.48c1.657 8.198 9.648 13.503 17.85 11.846 8.199-1.658 13.504-9.647 11.847-17.848C28.89 5.29 22.572.328 15.511.328c-.994 0-2.001.098-3.014.301z"/>
        <path id="C" d="M12.497.63C4.297 2.287-1.008 10.278.648 18.48c1.657 8.198 9.648 13.503 17.85 11.846 8.199-1.658 13.504-9.647 11.847-17.848C28.89 5.29 22.572.328 15.511.328c-.994 0-2.001.098-3.014.301"/>
    </defs>
    <g fill="none" fill-rule="evenodd">
        <circle cx="99" cy="100" r="99" fill="#FFF"/>
        <g transform="translate(4 4.606)">
            <mask id="b" fill="#fff">
                <use xlink:href="#a"/>
            </mask>
            <path fill="#6844B0" d="M190 95.187c0 12.696-2.482 24.794-6.987 35.864-11.155 27.466-34.752 48.53-63.773 56.19A94.932 94.932 0 0 1 95 190.373c-19.107 0-36.897-5.65-51.79-15.383C17.192 158.01 0 128.61 0 95.187 0 42.619 42.535 0 95 0c52.464 0 95 42.62 95 95.187" mask="url(#b)"/>
        </g>
        <path fill="#F3CBBA" d="M56.607 84.555L33.479 67.138c-1.709-1.288-.39-3.994 1.676-3.435l21.452 5.816v15.036zM52.555 61.18L24.05 47.152c-2.06-1.015-.97-4.142 1.274-3.648l31.284 6.883-4.052 10.793zM53.6 47.334L30.512 34.541c-1.963-1.089-.83-4.09 1.36-3.605l18.083 4.011L53.6 47.334zM54.21 28.142L41.707 4.864c-1.063-1.98 1.513-3.889 3.09-2.294L57.837 15.75 54.21 28.142z"/>
        <path fill="#96ABC0" d="M99.453 93.193l-39.917 8.072c-4.399.889-8.686-1.963-9.573-6.371L34.556 18.413c-.887-4.41 1.96-8.704 6.359-9.594L80.832.748c4.4-.89 8.686 1.962 9.575 6.371L105.812 83.6c.887 4.408-1.958 8.704-6.359 9.593"/>
        <path fill="#96ABC0" d="M63.988 57.857a4.808 4.808 0 0 0-4.804-4.813 4.81 4.81 0 0 0-4.804 4.813 4.81 4.81 0 0 0 4.804 4.815 4.81 4.81 0 0 0 4.804-4.815"/>
        <path fill="#FFF" d="M63.988 57.857a4.808 4.808 0 0 0-4.804-4.813 4.81 4.81 0 0 0-4.804 4.813 4.81 4.81 0 0 0 4.804 4.815 4.81 4.81 0 0 0 4.804-4.815"/>
        <path fill="#FFF" d="M52.689 94.686L37.15 17.545a5.073 5.073 0 0 1 3.961-5.977l40.606-8.21a5.061 5.061 0 0 1 5.962 3.968l15.54 77.143a5.072 5.072 0 0 1-3.96 5.973l-40.607 8.213a5.062 5.062 0 0 1-5.963-3.97"/>
        <path fill="#DADDE0" d="M93.5 68.015l-37.345 6.996-.484-2.599 37.344-6.994zM94.279 72.197l-37.344 6.996-.485-2.6L93.795 69.6zM95.406 76.69l-37.344 6.995-.484-2.6 37.344-6.993zM81.04 83.708l-22.197 4.158-.486-2.598 22.198-4.158z"/>
        <path fill="#472788" d="M187.013 135.657c-11.155 27.466-34.752 48.528-63.773 56.19l-21.283-49.143 62.102-31.274 22.954 24.227z"/>
        <path fill="#E79005" d="M164.06 111.43c.336.66-2.973 3.086-8.55 6.431-5.379 3.226-12.887 7.325-21.314 11.562-6.727 3.393-13.025 6.372-18.25 8.644-8.09 3.546-13.59 5.435-13.989 4.636-.414-.813 4.566-4.222 12.488-8.75 4.872-2.764 10.848-5.973 17.376-9.258 7.722-3.886 14.893-7.231 20.501-9.611 6.85-2.902 11.37-4.376 11.737-3.654"/>
        <path fill="#F3CBBA" d="M155.51 117.862c-5.378 3.225-12.886 7.325-21.314 11.56-6.726 3.393-13.024 6.373-18.249 8.644-.49-1.412-.996-2.777-1.502-4.115-4.566-12.067-9.79-20.649-15.445-20.787-19.429-.474-20.901-15.66-20.901-15.66l17.454-3.038c.858-9.55 4.167-16.366 7.263-20.788 3.493-5.005 2.681-11.821-1.67-16.09-2.912-2.872-6.298-5.265-9.424-5.175-4.152.108-9.24-2.134-13.07-4.25-2.16-1.2-1.686-4.438.735-4.93l9.76-2.041a30.094 30.094 0 0 1 18.955 2.272l11.737 5.556c5.96 2.825 9.99 8.6 10.619 15.186L133 90.889a20.184 20.184 0 0 0 6.834 13.31l12.488 10.884 3.187 2.779z"/>
        <path fill="#F5B900" d="M80.501 31.598c-1.612-7.996-9.388-13.167-17.366-11.552-7.98 1.615-13.143 9.407-11.53 17.402C53.215 45.444 60.991 50.615 68.971 49c7.98-1.617 13.141-9.407 11.53-17.402"/>
        <g>
            <g transform="translate(51 19)">
                <mask id="d" fill="#fff">
                    <use xlink:href="#c"/>
                </mask>
                <path fill="#FC9D85" d="M18.725 24.459l-3.976.804-.886-4.385 3.976-.803z" mask="url(#d)"/>
            </g>
            <g transform="translate(51 19)">
                <mask id="f" fill="#fff">
                    <use xlink:href="#e"/>
                </mask>
                <path fill="#FC9D85" d="M20.38 9.1l1.06 5.248a6.683 6.683 0 0 1-5.235 7.884A6.686 6.686 0 0 1 8.321 17l-1.06-5.248a6.633 6.633 0 0 1 2.5-6.626c1.615-.44 3.439-.953 4.722-1.358 1.097.101 2.138.485 3.047 1.09a6.503 6.503 0 0 1 2.456 3.004c.172.383.306.807.394 1.238" mask="url(#f)"/>
            </g>
            <g transform="translate(51 19)">
                <mask id="h" fill="#fff">
                    <use xlink:href="#g"/>
                </mask>
                <path fill="#FC9D85" d="M8.772 14.176a1.001 1.001 0 1 0-1.963.398 1.001 1.001 0 0 0 1.963-.398" mask="url(#h)"/>
            </g>
            <g transform="translate(51 19)">
                <mask id="j" fill="#fff">
                    <use xlink:href="#i"/>
                </mask>
                <path fill="#FC9D85" d="M21.89 11.527a.999.999 0 0 0-1.179-.783 1 1 0 1 0 .397 1.96.998.998 0 0 0 .783-1.177" mask="url(#j)"/>
            </g>
            <g transform="translate(51 19)">
                <mask id="l" fill="#fff">
                    <use xlink:href="#k"/>
                </mask>
                <path fill="#5C3B36" d="M21.047 12.403l.394 1.945a6.686 6.686 0 0 1-5.236 7.884 6.684 6.684 0 0 1-7.884-5.233l-.53-2.625.587-.118s1.463 4.62 4.533 4c-.242-1.444 4.82-2.307 5.077-.882 0 0 3.374-.553 3.059-4.97" mask="url(#l)"/>
            </g>
            <g transform="translate(51 19)">
                <mask id="n" fill="#fff">
                    <use xlink:href="#m"/>
                </mask>
                <path fill="#FC9D85" d="M14.069 18.114c.203 1.006 2.71.5 2.507-.505l-2.507.505z" mask="url(#n)"/>
            </g>
            <g transform="translate(51 19)">
                <mask id="p" fill="#fff">
                    <use xlink:href="#o"/>
                </mask>
                <path fill="#5C3B36" d="M12.435 12.415c-.203-1.006-2.71-.497-2.507.506l2.507-.506z" mask="url(#p)"/>
            </g>
            <g transform="translate(51 19)">
                <mask id="r" fill="#fff">
                    <use xlink:href="#q"/>
                </mask>
                <path fill="#5C3B36" d="M18.846 11.12c-.203-1.006-2.71-.499-2.507.506l2.507-.505z" mask="url(#r)"/>
            </g>
            <g transform="translate(51 19)">
                <mask id="t" fill="#fff">
                    <use xlink:href="#s"/>
                </mask>
                <path fill="#5C3B36" d="M11.747 12.93a.5.5 0 1 0-.394.592.502.502 0 0 0 .394-.591" mask="url(#t)"/>
            </g>
            <g transform="translate(51 19)">
                <mask id="v" fill="#fff">
                    <use xlink:href="#u"/>
                </mask>
                <path fill="#5C3B36" d="M18.158 11.636a.503.503 0 1 0-.986.199.503.503 0 0 0 .986-.2" mask="url(#v)"/>
            </g>
            <g transform="translate(51 19)">
                <mask id="x" fill="#fff">
                    <use xlink:href="#w"/>
                </mask>
                <path fill="#5C3B36" d="M19.55 8.193l1.36 6.193.416-.603-1.364-6.75z" mask="url(#x)"/>
            </g>
            <g transform="translate(51 19)">
                <mask id="z" fill="#fff">
                    <use xlink:href="#y"/>
                </mask>
                <path fill="#5C3B36" d="M20.98 5.316c.08 1.108-.313 1.943-.995 2.546-2.14 1.894-7.078 1.623-9.4.389-3.076-1.627-3.14 1.39-3.14 1.39l.932 4.615-.586.118L6.64 9.226A3.498 3.498 0 0 1 9.18 5.275c.183-.054.384-.093.581-.15 1.614-.437 3.439-.952 4.722-1.355.75-.263 1.318-.474 1.545-.618 1.052-.678 4.62-2.346 4.952 2.164" mask="url(#z)"/>
            </g>
            <g transform="translate(51 19)">
                <mask id="B" fill="#fff">
                    <use xlink:href="#A"/>
                </mask>
                <path fill="#FC9D85" d="M14.38 23.438l-.636.127L13 25.06l3.079 2.348 3.881-.786.394-2.39-.616-1.604-.746-.122z" mask="url(#B)"/>
            </g>
            <g transform="translate(51 19)">
                <mask id="D" fill="#fff">
                    <use xlink:href="#C"/>
                </mask>
                <path fill="#FFF" d="M26.343 26.37l1.345 6.653c.573 2.837-1.279 5.605-4.102 6.175l-7.933 1.605a5.244 5.244 0 0 1-6.179-4.1L8.131 30.05a5.24 5.24 0 0 1 4.1-6.179l1.513-.305a2.677 2.677 0 1 0 5.248-1.06l1.172-.236a5.25 5.25 0 0 1 6.179 4.1" mask="url(#D)"/>
            </g>
        </g>
        <g>
            <path fill="#DADDE0" d="M68.627 60.774c0-2.775-2.331-5.023-5.21-5.023-2.875 0-5.207 2.248-5.207 5.023 0 2.775 2.332 5.024 5.208 5.024 2.878 0 5.21-2.249 5.21-5.024"/>
            <path fill="#00B7B1" d="M85.022 57.528c0-2.775-2.332-5.023-5.21-5.023-2.876 0-5.208 2.248-5.208 5.023 0 2.775 2.332 5.024 5.208 5.024 2.878 0 5.21-2.249 5.21-5.024"/>
            <path stroke="#FFF" stroke-linecap="round" stroke-linejoin="round" stroke-width=".5" d="M77.256 58.145l2.557 1.178 2.125-3.86M64.506 58.54l-2.143 4.211M61.643 59.603l4.312 2.094"/>
        </g>
    </g>
</svg>
