<svg xmlns="http://www.w3.org/2000/svg" xmlns:xlink="http://www.w3.org/1999/xlink" width="198" height="198" viewBox="0 0 198 198">
    <defs>
        <path id="a" d="M.264 0h57.575v95.115H.264z"/>
        <path id="c" d="M0 192h192V0H0z"/>
    </defs>
    <g fill="none" fill-rule="evenodd">
        <circle cx="99" cy="99" r="99" fill="#FFF"/>
        <g transform="translate(3 3)">
            <path fill="#6844B0" d="M111.623 190.73A96.115 96.115 0 0 1 96 192c-19.308 0-37.285-5.698-52.335-15.515C17.373 159.36 0 129.708 0 96 0 42.983 42.983 0 96 0s96 42.983 96 96c0 47.69-34.792 87.267-80.377 94.73z"/>
            <g transform="translate(114.032)">
                <mask id="b" fill="#fff">
                    <use xlink:href="#a"/>
                </mask>
                <path fill="#96ABC0" d="M49.627 95.115H8.475a8.212 8.212 0 0 1-8.211-8.212V8.213A8.212 8.212 0 0 1 8.475 0h41.152a8.213 8.213 0 0 1 8.212 8.212v78.69a8.213 8.213 0 0 1-8.212 8.213" mask="url(#b)"/>
            </g>
            <path fill="#FFF" d="M117.037 87.243V7.872a5.115 5.115 0 0 1 5.116-5.115h41.86a5.115 5.115 0 0 1 5.116 5.115v79.371a5.116 5.116 0 0 1-5.115 5.116h-41.861a5.116 5.116 0 0 1-5.116-5.116"/>
            <path fill="#00B7B1" d="M159.484 48h-34.065a4.645 4.645 0 1 1 0-9.29h34.065a4.645 4.645 0 1 1 0 9.29"/>
            <mask id="d" fill="#fff">
                <use xlink:href="#c"/>
            </mask>
            <path fill="#DADDE0" d="M122.245 55.928h27.442V53.26h-27.442zM122.245 60.218h27.442v-2.666h-27.442zM122.245 65.788h27.442v-2.665h-27.442zM122.245 70.08h27.442v-2.666h-27.442z" mask="url(#d)"/>
            <path fill="#472788" d="M132.944 149.992l-21.32 40.738A96.115 96.115 0 0 1 96 192c-19.309 0-37.285-5.698-52.336-15.515l31.48-53.961 57.8 27.468z" mask="url(#d)"/>
            <path fill="#E79005" d="M120.48 146.616c-9.879-3.715-23.504-9.738-33.073-14.77-4.584-2.417-8.238-4.6-10.127-6.21-8.748-7.433 12.047.696 13.58 1.302.061.015.092.03.092.03s19.108 7.307 31.758 14.509c4.83 2.739 8.733 5.481 10.235 7.788 1.238 1.89-4.351.403-12.465-2.649" mask="url(#d)"/>
        </g>
        <text fill="#FFF" font-family="OpenSans, Open Sans" font-size="4" transform="translate(3 3)">
            <tspan x="133" y="42">Create</tspan>
        </text>
        <path fill="#F3CBBA" d="M146.129 97.984L126 144.375l-2.23 5.144c-9.878-3.718-23.504-9.744-33.073-14.78l3.453-4.912.913-1.303c4.754-6.77 5.73-15.787 4.94-24.016l-.047-.495C98.671 89.62 101.83 75.89 106.6 62.254l2.895-8.272a15.46 15.46 0 0 1 8.191-8.987l6.395-4.015 4.32-2.711a6.53 6.53 0 0 1 2.74-.605c.651 0 1.301.095 1.936.312.434.124.852.293 1.254.525 4.026 2.216 4.599 7.78 1.1 10.77l-11.335 7.823-2.276 1.565-.154.109s.495.34 1.238 1.148c2.37 2.588 7.293 9.977 6.333 25.983 0 1.55-2.075 12.085-2.075 12.085h18.968zM175.161 17.578l7.742-7.028c3.625-3.25 3.752 4.953 1.549 9.296l-9.29 17.044V17.578z"/>
        <path fill="#F3CBBA" d="M175.161 36.577l-9.655 14.083a3.098 3.098 0 0 0-.024 3.466 3.09 3.09 0 0 0 4.587.632l5.092-4.372c4.847-8.578 4.618-12.992 0-13.809M175.161 50.522l-9.655 14.083a3.098 3.098 0 0 0-.024 3.466 3.09 3.09 0 0 0 4.587.632l5.092-4.372c4.847-8.578 4.618-12.992 0-13.809M175.161 64.467l-9.655 14.083a3.098 3.098 0 0 0-.024 3.466 3.09 3.09 0 0 0 4.587.632l5.092-4.372c4.847-8.578 4.618-12.992 0-13.809M127.161 97.983s-3.496 7.272-5.133 8.463c-1.636 1.192 24.098-8.463 24.098-8.463H127.16z"/>
        <path fill="#F3CBBA" d="M176.311 16.534l.98 16.447-2.13 3.597v-19zM122.903 59.916c-2.322.418-5.31 1.812-5.31 1.812l4.072-2.959s.495.34 1.238 1.147"/>
        <path fill="#FFF" d="M165.514 53.005s1.996-3.576 2.731-3.365c.736.21 3.258 1.997 3.048 2.786-.21.79-2.036 2.102-2.883 2.366-.847.261-2.405-.608-2.896-1.787M167.878 63.96l2.58 3.511s-2.58 2.825-4.154 0c-1.571-2.826 1.574-3.51 1.574-3.51M166.86 79.222l2.806 2.875s-4.759 1.92-2.806-2.875M133.076 37.975c-2.09 1.41-7.758 5.222-8.439 5.16-.62-.062-.588-1.472-.557-2.156l4.32-2.711a6.553 6.553 0 0 1 2.74-.603c.65 0 1.301.093 1.936.31"/>
    </g>
</svg>
