<?xml version="1.0" encoding="UTF-8"?>
<svg width="90px" height="34px" viewBox="0 0 90 34" version="1.1" xmlns="http://www.w3.org/2000/svg" xmlns:xlink="http://www.w3.org/1999/xlink">
    <!-- Generator: Sketch 55.2 (78181) - https://sketchapp.com -->
    <title>Credit_Icon</title>
    <desc>Created with Sketch.</desc>
    <g id="Page-1" stroke="none" stroke-width="1" fill="none" fill-rule="evenodd" opacity="0.5">
        <g id="Subscription" transform="translate(-543.000000, -930.000000)">
            <g id="Main-Fold">
                <g id="PoweringRecurringpayments" transform="translate(543.000000, 930.000000)">
                    <g id="Credit_Icon" transform="translate(0.000000, 1.000000)">
                        <g id="Group-17">
                            <path d="M43.8375,31.5024 L2.1615,31.5024 C1.5205,31.5024 0.9995,30.9824 0.9995,30.3414 L0.9995,1.1614 C0.9995,0.5204 1.5205,0.0004 2.1615,0.0004 L43.8375,0.0004 C44.4795,0.0004 44.9995,0.5204 44.9995,1.1614 L44.9995,30.3414 C44.9995,30.9824 44.4795,31.5024 43.8375,31.5024" id="Fill-1" fill="#FFFFFF"></path>
                            <path d="M43.8375,31.5024 L2.1615,31.5024 C1.5205,31.5024 0.9995,30.9824 0.9995,30.3414 L0.9995,1.1614 C0.9995,0.5204 1.5205,0.0004 2.1615,0.0004 L43.8375,0.0004 C44.4795,0.0004 44.9995,0.5204 44.9995,1.1614 L44.9995,30.3414 C44.9995,30.9824 44.4795,31.5024 43.8375,31.5024 Z" id="Stroke-3" stroke="#6844B0" stroke-width="2"></path>
                            <path d="M19.0416,19.5483 L7.0416,19.5483 C5.9376,19.5483 5.0416,18.6523 5.0416,17.5483 C5.0416,16.4443 5.9376,15.5483 7.0416,15.5483 L19.0416,15.5483 C20.1456,15.5483 21.0416,16.4443 21.0416,17.5483 C21.0416,18.6523 20.1456,19.5483 19.0416,19.5483" id="Fill-5" fill="#FFFFFF"></path>
                            <path d="M19.0416,19.5483 L7.0416,19.5483 C5.9376,19.5483 5.0416,18.6523 5.0416,17.5483 C5.0416,16.4443 5.9376,15.5483 7.0416,15.5483 L19.0416,15.5483 C20.1456,15.5483 21.0416,16.4443 21.0416,17.5483 C21.0416,18.6523 20.1456,19.5483 19.0416,19.5483 Z" id="Stroke-7" stroke="#6844B0" stroke-width="2"></path>
                            <path d="M25.3717,27.516 L7.0417,27.516 C5.9367,27.516 5.0417,26.62 5.0417,25.516 C5.0417,24.412 5.9367,23.516 7.0417,23.516 L25.3717,23.516 C26.4757,23.516 27.3717,24.412 27.3717,25.516 C27.3717,26.62 26.4757,27.516 25.3717,27.516" id="Fill-9" fill="#FFFFFF"></path>
                            <path d="M25.3717,27.516 L7.0417,27.516 C5.9367,27.516 5.0417,26.62 5.0417,25.516 C5.0417,24.412 5.9367,23.516 7.0417,23.516 L25.3717,23.516 C26.4757,23.516 27.3717,24.412 27.3717,25.516 C27.3717,26.62 26.4757,27.516 25.3717,27.516 Z" id="Stroke-11" stroke="#6844B0" stroke-width="2"></path>
                            <path d="M37.236,7.4701 C37.236,5.2611 35.445,3.4701 33.236,3.4701 C31.027,3.4701 29.236,5.2611 29.236,7.4701 C29.236,9.6791 31.027,11.4701 33.236,11.4701 C35.445,11.4701 37.236,9.6791 37.236,7.4701" id="Fill-13" fill="#6844B0"></path>
                            <path d="M41.5074,7.4701 C41.5074,5.2611 39.7164,3.4701 37.5074,3.4701 C35.2974,3.4701 33.5074,5.2611 33.5074,7.4701 C33.5074,9.6791 35.2974,11.4701 37.5074,11.4701 C39.7164,11.4701 41.5074,9.6791 41.5074,7.4701" id="Fill-15" fill="#9059FF"></path>
                        </g>
                        <text id="Credit" font-family="Montserrat-Bold, Montserrat" font-size="12" font-weight="bold" letter-spacing="0.048" fill="#FFFFFF">
                            <tspan x="51" y="21">Credit</tspan>
                        </text>
                    </g>
                </g>
            </g>
        </g>
    </g>
</svg>