<?xml version="1.0" encoding="UTF-8"?>
<svg width="296px" height="192px" viewBox="0 0 296 192" version="1.1" xmlns="http://www.w3.org/2000/svg" xmlns:xlink="http://www.w3.org/1999/xlink">
    <!-- Generator: Sketch 55.2 (78181) - https://sketchapp.com -->
    <title>Group 21</title>
    <desc>Created with Sketch.</desc>
    <defs>
        <polygon id="path-1" points="0 0.652 69.4513 0.652 69.4513 167.1295 0 167.1295"></polygon>
        <polygon id="path-3" points="0 0.654844355 61.9035 0.654844355 61.9035 147.1295 0 147.1295"></polygon>
    </defs>
    <g id="Page-1" stroke="none" stroke-width="1" fill="none" fill-rule="evenodd" opacity="0.569777716">
        <g id="Subscription" transform="translate(-986.000000, -1888.000000)">
            <g id="Didyouknow" transform="translate(121.000000, 1888.000000)">
                <g id="Group-21">
                    <g>
                        <g transform="translate(865.000000, -33.000000)">
                            <path d="M15.6232,73.3814 C15.1292,74.6914 14.7482,76.0114 14.4902,77.3464 C12.1302,89.1524 18.5832,101.2824 30.2222,105.6744 C41.8602,110.0674 54.7182,105.2254 60.7462,94.8014 C61.4352,93.6294 62.0212,92.3864 62.5162,91.0764 C67.4012,78.1274 60.8652,63.6694 47.9172,58.7824 C34.9692,53.8964 20.5102,60.4324 15.6232,73.3814" id="Fill-1" fill="#F9CF59"></path>
                            <path d="M14.4904,77.3463 C12.1304,89.1533 18.5834,101.2833 30.2214,105.6743 C41.8604,110.0673 54.7184,105.2253 60.7464,94.8013 C63.1064,82.9943 56.6534,70.8663 45.0144,66.4733 C33.3764,62.0813 20.5184,66.9233 14.4904,77.3463" id="Fill-3" fill="#E79005"></path>
                            <polygon id="Fill-5" fill="#015B59" points="186.3947 247.3189 212.9727 257.3479 240.2747 184.9979 213.6977 174.9679"></polygon>
                            <polygon id="Fill-7" fill="#5BBFBD" points="233.342 122.898 209.997 184.76 271.86 208.105 295.203 146.243"></polygon>
                            <polygon id="Fill-9" fill="#015B59" points="226.9445 139.8512 209.9975 184.7602 271.8595 208.1052 288.8055 163.1962"></polygon>
                            <path d="M69.4513,1.689 L6.8883,167.477 C88.6193,163.379 125.6883,158.332 209.9973,184.76 L233.3423,122.898 C156.3953,88.999 130.5103,63.615 69.4513,1.689" id="Fill-11" fill="#F9CF59"></path>
                            <path d="M60.5939,25.1627 L6.8889,167.4767 C88.6189,163.3797 125.6889,158.3317 209.9969,184.7607 L224.4839,146.3727 C147.5369,112.4727 121.6519,87.0887 60.5939,25.1627" id="Fill-13" fill="#E79005"></path>
                            <g id="Group-17" transform="translate(0.000000, 0.348000)">
                                <mask id="mask-2" fill="white">
                                    <use xlink:href="#path-1"></use>
                                </mask>
                                <g id="Clip-16"></g>
                                <path d="M55.7443,7.5295 L0.6863,153.4265 C-1.3857,158.9195 1.3883,165.0525 6.8893,167.1295 L69.4513,1.3415 C63.9503,-0.7355 57.8163,2.0375 55.7443,7.5295" id="Fill-15" fill="#5BBFBD" mask="url(#mask-2)"></path>
                            </g>
                            <g id="Group-20" transform="translate(0.000000, 20.348000)">
                                <mask id="mask-4" fill="white">
                                    <use xlink:href="#path-3"></use>
                                </mask>
                                <g id="Clip-19"></g>
                                <path d="M48.1955,7.5325 L0.6865,133.4275 C-1.3855,138.9195 1.3875,145.0535 6.8885,147.1295 L61.9035,1.3445 C56.4015,-0.7325 50.2675,2.0405 48.1955,7.5325" id="Fill-18" fill="#015B59" mask="url(#mask-4)"></path>
                            </g>
                        </g>
                    </g>
                </g>
            </g>
        </g>
    </g>
</svg>