<svg xmlns="http://www.w3.org/2000/svg" width="40" height="34" viewBox="0 0 40 34">
    <g fill="none" fill-rule="evenodd">
        <path fill="#00B7B1" d="M21.781 5a2 2 0 1 0-4.001.001A2 2 0 0 0 21.78 5"/>
        <path stroke="#00B7B1" stroke-linecap="round" stroke-linejoin="round" stroke-width="2" d="M23.589 6.23a4 4 0 1 0-5.909 2.174"/>
        <path fill="#00B7B1" d="M7 28.938a2 2 0 1 0-4 .001 2 2 0 0 0 4-.002"/>
        <path stroke="#00B7B1" stroke-linecap="round" stroke-linejoin="round" stroke-width="2" d="M17.68 8.404L5 28.937M31.784 31.78a4 4 0 1 0 .697-6.258"/>
        <path fill="#00B7B1" d="M18.887 6.79a2 2 0 1 0 1.79-3.58 2 2 0 0 0-1.79 3.58"/>
        <path stroke="#00B7B1" stroke-linecap="round" stroke-linejoin="round" stroke-width="2" d="M32.481 25.521L19.782 5.002M4.06 24.961A4 4 0 1 0 9 28.863"/>
        <path fill="#00B7B1" d="M33.572 27.201a2 2 0 1 0 2.09 3.41 2 2 0 0 0-2.09-3.41"/>
        <path stroke="#00B7B1" stroke-linecap="round" stroke-linejoin="round" stroke-width="2" d="M9 28.825l25.617.081"/>
    </g>
</svg>
